<svg width="81" height="56" viewBox="0 0 81 56" xmlns="http://www.w3.org/2000/svg"><title>wireshell logo</title>
  <defs>
    <linearGradient x1="79.802%" y1="65.095%" x2="20.364%" y2="65.095%" id="a">
      <stop stop-color="#69B7EF" offset="0%"></stop>
      <stop stop-color="#D52978" offset="100%"></stop>
    </linearGradient>
  </defs>
  <path d="M236.04 317.162l-7.994-53.532s5.19-2.22 7.994-2.22c2.526 0 7.994 2.22 7.994 2.22l-7.994 53.532zm-2.52-.09l-23.45-47.047s4.127-3.61 6.716-4.45c2.333-.76 8.05-.35 8.05-.35l8.684 51.848zm5.25 0l8.683-51.846s5.46-.493 8.05.348c2.333.758 6.718 4.45 6.718 4.45l-23.45 47.05zm4.187-3.483l22.187-40.854s4.71 1.16 6.632 2.61c1.732 1.304 4.335 5.655 4.335 5.655l-33.153 32.59zm1.843 1.294l10.886-9.467s1.673 2.965 2.294 4.67c.56 1.535 1.244 5.05 1.244 5.05l-14.424-.253zm-17.512 0l-14.424.254s.624-3.347 1.244-5.05c.56-1.537 2.294-4.67 2.294-4.67l10.886 9.466zm1.978-1.295L196.11 281s2.414-4.206 4.337-5.655c1.732-1.306 6.63-2.61 6.63-2.61l22.19 40.854z" transform="translate(-196 -261)" fill="url(#a)" fill-rule="evenodd"></path>
</svg>
